<?xml version="1.0" encoding="UTF-8" standalone="no"?>
<!-- Created with Inkscape (http://www.inkscape.org/) -->

<svg
   xmlns:dc="http://purl.org/dc/elements/1.1/"
   xmlns:cc="http://creativecommons.org/ns#"
   xmlns:rdf="http://www.w3.org/1999/02/22-rdf-syntax-ns#"
   xmlns:svg="http://www.w3.org/2000/svg"
   xmlns="http://www.w3.org/2000/svg"
   version="1.1"
   width="750"
   height="600"
   id="svg2989">
  <defs
     id="defs2991" />
  <metadata
     id="metadata2994">
    <rdf:RDF>
      <cc:Work
         rdf:about="">
        <dc:format>image/svg+xml</dc:format>
        <dc:type
           rdf:resource="http://purl.org/dc/dcmitype/StillImage" />
        <dc:title></dc:title>
      </cc:Work>
    </rdf:RDF>
  </metadata>
  <g
     transform="translate(-44.759056,-235.78223)"
     id="layer1">
    <rect
       width="750"
       height="600"
       rx="37.5"
       ry="37.5"
       x="44.759056"
       y="235.78223"
       id="rect2997"
       style="fill:#000000;fill-opacity:1;fill-rule:nonzero;stroke:none" />
    <path
       d="m 182.25906,342.03223 0,-87.5 593.75,0 0,562.5 -281.25,0 -431.250004,-68.75 -2e-6,-406.25 z"
       id="rect3767"
       style="fill:#ffffff;fill-opacity:1;fill-rule:nonzero;stroke:none" />
    <g
       id="text3770"
       style="font-size:447.76119995px;font-style:normal;font-variant:normal;font-weight:normal;font-stretch:normal;text-align:center;line-height:125%;letter-spacing:0px;word-spacing:0px;writing-mode:lr-tb;text-anchor:middle;fill:#000000;fill-opacity:1;stroke:none;font-family:Roadgeek 2005 Series D;-inkscape-font-specification:Roadgeek 2005 Series D">
      <path
         d="m 144.35094,710.78223 0,-243.13434 -27.31343,0 0,-38.0597 3.13433,0 c 6.26861,2.8e-4 12.53726,-1.64151 18.80597,-4.92537 6.26859,-3.28329 11.49247,-7.91015 15.67164,-13.8806 l 38.0597,0 0,300.00001 -48.35821,0"
         id="path4141"
         style="font-family:Roadgeek 2005 Series D;-inkscape-font-specification:Roadgeek 2005 Series D" />
      <path
         d="m 430.22548,636.00611 0,74.77612 -47.01493,0 0,-74.77612 -148.65671,0 0,-28.20896 148.65671,-197.01493 47.01493,0 0,182.23881 28.65672,0 0,42.98508 -28.65672,0 m -47.01493,-155.8209 -85.52238,112.83582 85.52238,0 0,-112.83582"
         id="path4143"
         style="font-family:Roadgeek 2005 Series D;-inkscape-font-specification:Roadgeek 2005 Series D" />
      <path
         d="m 722.48061,611.827 c -2.3e-4,15.22397 -2.53754,29.2538 -7.61194,42.08955 -5.07484,12.83587 -12.23901,23.88063 -21.49254,33.13433 -8.95541,8.95524 -19.85092,16.11941 -32.68656,21.49254 -12.53747,5.07462 -26.41805,7.61194 -41.6418,7.61194 -12.23891,0 -23.73144,-1.9403 -34.47761,-5.82089 -10.44784,-3.8806 -20.14932,-9.25373 -29.10448,-16.11941 -8.65676,-6.86565 -16.11944,-15.22385 -22.38806,-25.07463 -6.26868,-9.85069 -10.89555,-20.89546 -13.88059,-33.13432 l 46.56716,-13.43284 c 3.58202,14.62694 10.14917,25.82096 19.70149,33.58209 9.55214,7.76124 21.49243,11.64183 35.8209,11.64179 8.05957,4e-5 15.37299,-1.34324 21.9403,-4.02985 6.56701,-2.68652 12.08939,-6.2686 16.56716,-10.74627 4.77595,-4.77606 8.50729,-10.29844 11.19403,-16.56716 2.68639,-6.56709 4.02967,-13.73126 4.02985,-21.49254 -1.8e-4,-7.76109 -1.49271,-15.07452 -4.47761,-21.9403 -2.98525,-6.86555 -7.16435,-12.23868 -12.53731,-16.1194 -1.79121,-1.1939 -3.433,-2.08942 -4.92537,-2.68657 -1.19419,-0.89538 -2.83598,-1.4924 -4.92538,-1.79104 -1.79119,-0.29837 -4.3285,-0.59688 -7.61194,-0.89553 -2.98522,-0.29836 -7.31357,-0.59687 -12.98507,-0.89552 l -5.37314,0 0,-48.35821 0,1.34328 1.34329,0 0.89552,0 9.40298,0 c 9.55209,1.9e-4 16.86552,-2.53712 21.9403,-7.61194 5.07446,-5.07442 7.61177,-12.38785 7.61194,-21.94029 -1.7e-4,-11.64157 -4.17927,-21.1938 -12.53731,-28.65672 -8.05985,-7.76094 -18.20909,-11.64154 -30.44776,-11.64179 -20.00011,2.5e-4 -35.07472,9.85099 -45.22388,29.55224 l -44.32836,-16.56717 c 7.76115,-19.10421 19.40293,-34.02957 34.92537,-44.77612 15.82081,-11.04447 33.58199,-16.56686 53.28358,-16.56716 12.53718,3e-4 24.32821,2.38836 35.37314,7.16418 11.34311,4.77641 21.19385,11.34357 29.55224,19.70149 8.35801,8.35848 14.92517,18.20922 19.70149,29.55224 4.77591,11.04501 7.16396,22.83605 7.16418,35.37313 -2.2e-4,8.95543 -1.19424,17.01513 -3.58209,24.17911 -2.38827,7.16436 -6.86588,15.52256 -13.43284,25.07463 5.67144,5.07478 10.2983,10.00015 13.8806,14.77612 3.58188,4.47775 6.41769,9.25387 8.50746,14.32835 2.38784,5.07476 4.02963,10.59714 4.92538,16.56717 0.89529,5.67175 1.34305,12.23891 1.34328,19.70149"
         id="path4145"
         style="font-family:Roadgeek 2005 Series D;-inkscape-font-specification:Roadgeek 2005 Series D" />
    </g>
    <g
       id="text3774"
       style="font-size:93.28358459px;font-style:normal;font-variant:normal;font-weight:normal;font-stretch:normal;text-align:center;line-height:125%;letter-spacing:0px;word-spacing:0px;writing-mode:lr-tb;text-anchor:middle;fill:#000000;fill-opacity:1;stroke:none;font-family:Roadgeek 2005 Series E;-inkscape-font-specification:Roadgeek 2005 Series E">
      <path
         d="m 319.18788,348.28223 -6.15671,-14.73881 -27.23881,0 -6.06343,14.73881 -12.31344,0 26.30597,-62.50001 11.3806,0 26.1194,62.50001 -12.03358,0 m -19.77612,-46.92165 -8.76865,21.08209 17.53731,0 -8.76866,-21.08209"
         id="path2990"
         style="letter-spacing:1.56288195;font-family:Roadgeek 2005 Series E;-inkscape-font-specification:Roadgeek 2005 Series E" />
      <path
         d="m 381.50461,348.28223 -10.07462,-24.53359 -16.69776,0 0,24.53359 -11.19403,0 0,-62.50001 28.73134,0 c 2.30096,7e-5 4.25991,0.18663 5.87687,0.55971 1.61687,0.37319 3.23378,1.05727 4.85074,2.05224 2.98503,1.61697 5.34821,3.88687 7.08955,6.8097 1.74124,2.92293 2.61189,6.15676 2.61194,9.70149 -5e-5,3.54482 -0.90179,6.77864 -2.70522,9.70149 -1.74135,2.86073 -4.22891,5.16172 -7.46269,6.90299 l 11.47388,26.77239 -12.5,0 m 0,-43.37687 c -4e-5,-2.42533 -0.8085,-4.35319 -2.42537,-5.78358 -1.61696,-1.4303 -3.82467,-2.14547 -6.62313,-2.14552 l -17.72388,0 0,15.57835 17.72388,0 c 2.79846,4e-5 5.00617,-0.68404 6.62313,-2.05224 1.61687,-1.4303 2.42533,-3.29597 2.42537,-5.59701"
         id="path2992"
         style="letter-spacing:1.56288195;font-family:Roadgeek 2005 Series E;-inkscape-font-specification:Roadgeek 2005 Series E" />
      <path
         d="m 409.06389,348.28223 0,-62.50001 11.19403,0 0,62.50001 -11.19403,0"
         id="path2994"
         style="letter-spacing:1.56288195;font-family:Roadgeek 2005 Series E;-inkscape-font-specification:Roadgeek 2005 Series E" />
      <path
         d="m 436.25384,348.28223 0,-12.68657 35.54105,-38.80597 -33.58209,0 0,-11.00747 47.20149,0 0,12.68657 -35.35448,38.61941 35.35448,0 0,11.19403 -49.16045,0"
         id="path2996"
         style="letter-spacing:1.56288195;font-family:Roadgeek 2005 Series E;-inkscape-font-specification:Roadgeek 2005 Series E" />
      <path
         d="m 549.95234,316.65909 c -6e-5,4.91296 -0.62195,9.39057 -1.86567,13.43284 -1.18165,3.98011 -2.89185,7.40051 -5.1306,10.26119 -2.23886,2.8607 -4.97517,5.09951 -8.20896,6.71642 -3.17168,1.55473 -6.74755,2.33209 -10.72761,2.33209 -4.60202,0 -8.58211,-0.93284 -11.9403,-2.79851 -3.29603,-1.92786 -6.03235,-4.41541 -8.20895,-7.46268 -2.17663,-3.10945 -3.79354,-6.59203 -4.85075,-10.44777 -0.99503,-3.91788 -1.49254,-7.83579 -1.49254,-11.75373 0,-4.97509 0.59079,-9.45269 1.77239,-13.43283 1.24377,-3.98005 3.01616,-7.36936 5.31717,-10.16791 2.30098,-2.79845 5.06839,-4.94397 8.30223,-6.43657 3.296,-1.49248 6.99625,-2.23874 11.10075,-2.23881 3.85569,7e-5 7.36936,0.77743 10.54105,2.33209 3.17159,1.55479 5.90791,3.7314 8.20895,6.52985 2.30094,2.79856 4.07333,6.18786 5.31717,10.16791 1.24372,3.91795 1.86561,8.24009 1.86567,12.96642 m -11.19403,0.27985 c -5e-5,-6.592 -1.27492,-11.75369 -3.82463,-15.48507 -2.54979,-3.7313 -6.18785,-5.59697 -10.91418,-5.59702 -4.72639,5e-5 -8.42664,1.86572 -11.10075,5.59702 -2.67414,3.73138 -4.01121,8.89307 -4.01119,15.48507 -2e-5,6.71644 1.33705,11.94032 4.01119,15.67164 2.67411,3.73136 6.37436,5.59703 11.10075,5.59702 2.98504,10e-6 5.41041,-0.65297 7.27612,-1.95896 1.92782,-1.30595 3.42036,-2.98506 4.47761,-5.03731 1.11936,-2.05222 1.89672,-4.32212 2.33209,-6.8097 0.43528,-2.54973 0.65294,-5.03729 0.65299,-7.46269"
         id="path2998"
         style="letter-spacing:1.56288195;font-family:Roadgeek 2005 Series E;-inkscape-font-specification:Roadgeek 2005 Series E" />
      <path
         d="m 606.67498,348.28223 -29.75747,-43.00374 0,43.00374 -11.00746,0 0,-62.50001 11.00746,0 28.63807,41.23135 0,-41.23135 10.82089,0 0,62.50001 -9.70149,0"
         id="path3000"
         style="letter-spacing:1.56288195;font-family:Roadgeek 2005 Series E;-inkscape-font-specification:Roadgeek 2005 Series E" />
      <path
         d="m 680.23821,348.28223 -6.15672,-14.73881 -27.23881,0 -6.06343,14.73881 -12.31343,0 26.30597,-62.50001 11.38059,0 26.11941,62.50001 -12.03358,0 m -19.77612,-46.92165 -8.76866,21.08209 17.53731,0 -8.76865,-21.08209"
         id="path3002"
         style="letter-spacing:1.56288195;font-family:Roadgeek 2005 Series E;-inkscape-font-specification:Roadgeek 2005 Series E" />
    </g>
  </g>
</svg>
