<?xml version="1.0" encoding="UTF-8" standalone="no"?>
<!-- Created with Inkscape (http://www.inkscape.org/) -->

<svg
   xmlns:dc="http://purl.org/dc/elements/1.1/"
   xmlns:cc="http://creativecommons.org/ns#"
   xmlns:rdf="http://www.w3.org/1999/02/22-rdf-syntax-ns#"
   xmlns:svg="http://www.w3.org/2000/svg"
   xmlns="http://www.w3.org/2000/svg"
   version="1.1"
   width="600"
   height="600"
   id="svg2989">
  <defs
     id="defs2991" />
  <metadata
     id="metadata2994">
    <rdf:RDF>
      <cc:Work
         rdf:about="">
        <dc:format>image/svg+xml</dc:format>
        <dc:type
           rdf:resource="http://purl.org/dc/dcmitype/StillImage" />
        <dc:title></dc:title>
      </cc:Work>
    </rdf:RDF>
  </metadata>
  <g
     transform="translate(-44.759056,-235.78223)"
     id="layer1">
    <rect
       width="600"
       height="600"
       rx="37.5"
       ry="37.5"
       x="44.759056"
       y="235.78223"
       id="rect2997"
       style="fill:#000000;fill-opacity:1;fill-rule:nonzero;stroke:none" />
    <path
       d="m 157.25906,335.78223 0,-81.25 468.75,0 0,562.5 -206.25,0 -356.250004,-81.25 0,-400 z"
       id="rect3767"
       style="fill:#ffffff;fill-opacity:1;fill-rule:nonzero;stroke:none" />
    <g
       id="text3770"
       style="font-size:447.76119995px;font-style:normal;font-variant:normal;font-weight:normal;font-stretch:normal;text-align:center;line-height:125%;letter-spacing:0px;word-spacing:0px;writing-mode:lr-tb;text-anchor:middle;fill:#000000;fill-opacity:1;stroke:none;font-family:Roadgeek 2005 Series D;-inkscape-font-specification:Roadgeek 2005 Series D">
      <path
         d="m 371.69144,600.18521 c -2.3e-4,16.71651 -3.28381,32.08963 -9.85074,46.1194 -6.26888,14.02991 -15.22409,26.2687 -26.86568,36.71642 -11.64197,10.44778 -25.52256,18.65673 -41.64179,24.62687 -15.82103,5.67164 -33.2837,8.50746 -52.38806,8.50746 -13.13442,0 -26.11948,-1.49254 -38.95522,-4.47761 -12.53737,-2.98507 -24.02989,-7.16417 -34.47761,-12.53731 l 23.28358,-42.08956 c 6.2686,3.28364 14.47754,5.9702 24.62686,8.0597 10.14917,1.79109 20.74617,2.68661 31.79105,2.68657 10.74615,4e-5 20.74614,-1.64175 30,-4.92537 9.55209,-3.58204 17.76104,-8.35815 24.62687,-14.32836 7.164,-5.97008 12.68639,-12.985 16.56716,-21.04478 3.88041,-8.35811 5.82071,-17.46258 5.8209,-27.31343 -1.9e-4,-7.46257 -1.49273,-14.32823 -4.47762,-20.59702 -2.68674,-6.26851 -6.56734,-11.7909 -11.64179,-16.56716 -4.77628,-4.77597 -10.44792,-8.50731 -17.01492,-11.19403 -6.26881,-2.6864 -13.13447,-4.02969 -20.59702,-4.02985 -5.37326,1.6e-4 -10.14938,0.44792 -14.32836,1.34328 -3.88071,0.89569 -7.61205,2.53748 -11.19403,4.92538 -3.58219,2.38821 -7.16428,5.67179 -10.74627,9.85074 -3.58218,3.88074 -7.61203,8.95536 -12.08955,15.22388 l -47.46269,-13.43283 7.61194,-154.92538 172.38807,0 0,47.46269 -126.26866,0 -3.13433,49.25373 c 11.04468,-3.28337 19.70139,-5.52218 25.97015,-6.71642 6.26854,-1.19381 13.1342,-1.79083 20.59701,-1.79104 13.7312,2.1e-4 26.56701,2.68678 38.50747,8.0597 12.23862,5.37333 22.83562,12.68676 31.79104,21.9403 9.25352,9.2539 16.41769,20.00016 21.49254,32.23881 5.3729,12.23894 8.05947,25.224 8.0597,38.95522"
         id="path3196" />
      <path
         d="m 458.06039,710.78223 0,-243.13434 -27.31344,0 0,-38.0597 3.13433,0 c 6.26862,2.8e-4 12.53727,-1.64151 18.80597,-4.92537 6.2686,-3.28329 11.49248,-7.91015 15.67164,-13.8806 l 38.05971,0 0,300.00001 -48.35821,0"
         id="path3198" />
    </g>
    <g
       id="text3774"
       style="font-size:93.28358459px;font-style:normal;font-variant:normal;font-weight:normal;font-stretch:normal;text-align:center;line-height:125%;letter-spacing:0px;word-spacing:0px;writing-mode:lr-tb;text-anchor:middle;fill:#000000;fill-opacity:1;stroke:none;font-family:Roadgeek 2005 Series D;-inkscape-font-specification:Roadgeek 2005 Series D">
      <path
         d="m 252.73481,348.28223 -6.15672,-17.53732 -19.49627,0 -6.15672,17.53732 -10.54104,0 21.54851,-62.50001 9.79477,0 21.54851,62.50001 -10.54104,0 m -15.76493,-45.14926 -6.43657,17.53732 12.5,0 -6.06343,-17.53732"
         id="path3779"
         style="letter-spacing:1.56288195" />
      <path
         d="m 306.10506,348.28223 -10.07463,-27.23881 -11.84701,0 0,27.23881 -9.88806,0 0,-62.50001 20.61567,0 c 2.42534,7e-5 4.50867,0.15554 6.25,0.46642 1.74126,0.24882 3.38927,0.74633 4.94403,1.49254 1.36812,0.68414 2.6119,1.58588 3.73134,2.70522 1.18155,1.05727 2.17657,2.30105 2.98508,3.73135 0.8706,1.36821 1.52358,2.86075 1.95895,4.47761 0.49747,1.55477 0.74622,3.1095 0.74627,4.66418 -5e-5,1.67915 -0.2488,3.32715 -0.74627,4.94403 -0.43537,1.55476 -1.08835,3.0473 -1.95895,4.47761 -0.80851,1.36819 -1.83462,2.61197 -3.07836,3.73134 -1.18163,1.11944 -2.4876,1.99008 -3.91791,2.61194 l 11.00746,29.19777 -10.72761,0 m -0.46642,-44.96269 c -4e-5,-1.30593 -0.34208,-2.54971 -1.02612,-3.73134 -0.68411,-1.18155 -1.64804,-2.11438 -2.89179,-2.79851 -0.80849,-0.43527 -1.55476,-0.71512 -2.2388,-0.83955 -0.68412,-0.18652 -1.83461,-0.2798 -3.4515,-0.27986 l -11.84701,0 0,15.29851 11.84701,0 c 1.5547,4e-5 2.6741,-0.0622 3.35821,-0.18656 0.74624,-0.12434 1.5236,-0.4042 2.33209,-0.83956 1.24375,-0.68404 2.20768,-1.61687 2.89179,-2.7985 0.68404,-1.24374 1.02608,-2.51862 1.02612,-3.82463"
         id="path3781"
         style="letter-spacing:1.56288195" />
      <path
         d="m 330.7523,348.28223 0,-62.50001 10.07463,0 0,62.50001 -10.07463,0"
         id="path3783"
         style="letter-spacing:1.56288195" />
      <path
         d="m 353.82922,348.28223 0,-8.30224 28.54478,-44.30971 -26.1194,0 0,-9.88806 40.11194,0 0,5.87687 -28.91791,46.54851 28.91791,0 0,10.07463 -42.53732,0"
         id="path3785"
         style="letter-spacing:1.56288195" />
      <path
         d="m 451.4261,317.12551 c -5e-5,4.97515 -0.59085,9.73261 -1.77239,14.27239 -1.18164,4.53981 -2.86074,8.20896 -5.03731,11.00746 -3.48263,4.66418 -8.51994,6.99627 -15.11194,6.99627 -4.41545,0 -8.05351,-0.90174 -10.91418,-2.70522 -2.86071,-1.80348 -5.22389,-4.63308 -7.08955,-8.48881 -1.30598,-2.67412 -2.3632,-5.90794 -3.17165,-9.70149 -0.80846,-3.8557 -1.21269,-7.64923 -1.21268,-11.3806 -10e-6,-5.16166 0.59079,-9.95021 1.77239,-14.36567 1.24377,-4.41538 2.92287,-8.11562 5.03731,-11.10075 1.86566,-2.36312 4.07337,-4.10442 6.62313,-5.22388 2.61192,-1.18153 5.72137,-1.77232 9.32836,-1.77239 3.98007,7e-5 7.36937,0.90181 10.16791,2.70523 2.79847,1.80354 5.19274,4.63314 7.18284,8.4888 1.30592,2.79856 2.33204,6.06348 3.07836,9.79478 0.74622,3.73138 1.11935,7.556 1.1194,11.47388 m -9.88806,0 c -4e-5,-3.54474 -0.31099,-6.80966 -0.93284,-9.79478 -0.62193,-3.04722 -1.55476,-5.62806 -2.7985,-7.74253 -0.99506,-1.61687 -2.14556,-2.79846 -3.4515,-3.54478 -1.24381,-0.74622 -2.79853,-1.18154 -4.66418,-1.30597 -2.42539,-0.12433 -4.44654,0.43538 -6.06343,1.6791 -1.61693,1.24384 -2.954,3.26498 -4.01119,6.06344 -0.80848,1.86571 -1.43037,4.13561 -1.86567,6.8097 -0.37315,2.61197 -0.55972,5.22391 -0.55971,7.83582 -10e-6,3.35824 0.31093,6.59206 0.93284,9.70149 0.62187,3.10947 1.55471,5.65922 2.79851,7.64926 0.995,1.61692 2.17659,2.82961 3.54477,3.63806 1.36814,0.80846 3.04724,1.21269 5.03732,1.21268 2.30096,10e-6 4.19773,-0.62188 5.6903,-1.86567 1.55469,-1.24377 2.86066,-3.26491 3.91791,-6.06343 0.3109,-0.80844 0.62185,-1.77237 0.93283,-2.89179 0.31091,-1.18157 0.55966,-2.39426 0.74627,-3.63806 0.24872,-1.30595 0.43528,-2.61192 0.5597,-3.91791 0.12434,-1.30595 0.18653,-2.58082 0.18657,-3.82463"
         id="path3787"
         style="letter-spacing:1.56288195" />
      <path
         d="m 500.59859,348.28223 -23.8806,-42.35075 0,42.35075 -9.88806,0 0,-62.50001 9.88806,0 22.76119,39.92538 0,-39.92538 9.88806,0 0,62.50001 -8.76865,0"
         id="path3789"
         style="letter-spacing:1.56288195" />
      <path
         d="m 562.63111,348.28223 -6.15672,-17.53732 -19.49627,0 -6.15671,17.53732 -10.54105,0 21.54851,-62.50001 9.79478,0 21.5485,62.50001 -10.54104,0 m -15.76493,-45.14926 -6.43656,17.53732 12.5,0 -6.06344,-17.53732"
         id="path3791"
         style="letter-spacing:1.56288195" />
    </g>
  </g>
</svg>
